<?xml version="1.0" standalone="no"?>
<!DOCTYPE svg PUBLIC "-//W3C//DTD SVG 20010904//EN"
 "http://www.w3.org/TR/2001/REC-SVG-20010904/DTD/svg10.dtd">
<svg version="1.0" xmlns="http://www.w3.org/2000/svg"
 width="1408.000000pt" height="768.000000pt" viewBox="0 0 1408.000000 768.000000"
 preserveAspectRatio="xMidYMid meet">

<g transform="translate(0.000000,768.000000) scale(0.100000,-0.100000)"
fill="#000000" stroke="none">
<path d="M0 3840 l0 -3840 7040 0 7040 0 0 3840 0 3840 -3955 0 -3955 0 0
-145 c0 -127 -2 -145 -16 -145 -14 0 -15 2 -3 17 10 11 10 14 2 9 -10 -6 -13
16 -11 96 1 92 2 97 8 43 6 -57 7 -56 8 33 l2 92 -3080 0 -3080 0 0 -3840z
m6147 3788 c-3 -8 -6 -5 -6 6 -1 11 2 17 5 13 3 -3 4 -12 1 -19z m-1278 -162
c-1 -44 -3 -54 -9 -36 l-7 25 -5 -30 c-3 -16 -6 2 -7 42 -1 61 1 71 14 67 11
-5 15 -22 14 -68z m1991 35 c0 -12 -29 -35 -36 -28 -11 10 5 37 21 37 8 0 15
-4 15 -9z m-1883 -53 c-3 -7 -5 -2 -5 12 0 14 2 19 5 13 2 -7 2 -19 0 -25z
m1937 -25 c-23 -17 -31 -8 -10 12 9 9 17 22 17 28 1 7 4 3 6 -7 3 -12 -2 -25
-13 -33z m-70 22 c3 -8 1 -15 -4 -15 -6 0 -10 7 -10 15 0 8 2 15 4 15 2 0 6
-7 10 -15z m2400 6 c3 -5 -1 -11 -9 -15 -9 -3 -15 0 -15 9 0 16 16 20 24 6z
m-824 -14 c0 -2 -17 -19 -37 -38 l-38 -34 34 38 c33 34 41 42 41 34z m-3213
-29 c-3 -8 -6 -5 -6 6 -1 11 2 17 5 13 3 -3 4 -12 1 -19z m2723 9 c0 -2 -15
-16 -32 -33 l-33 -29 29 33 c28 30 36 37 36 29z m-3083 -59 c-3 -7 -5 -2 -5
12 0 14 2 19 5 13 2 -7 2 -19 0 -25z m2987 -3 c-17 -26 -8 -34 16 -12 8 6 6 2
-4 -10 -10 -13 -23 -20 -29 -16 -5 3 -8 2 -4 -3 3 -5 -71 -85 -164 -178 l-169
-169 0 -93 c0 -77 -3 -94 -15 -94 -12 0 -15 18 -15 105 l0 104 198 195 c108
108 198 196 200 196 1 0 -5 -11 -14 -25z m-1626 -25 c-2 -7 -10 1 -17 16 -12
27 -11 28 4 12 10 -9 16 -21 13 -28z m-73 20 c-3 -5 -12 -10 -18 -10 -7 0 -6
4 3 10 19 12 23 12 15 0z m-1548 -47 c-3 -10 -5 -2 -5 17 0 19 2 27 5 18 2
-10 2 -26 0 -35z m930 12 c0 -23 -4 -32 -10 -26 -8 8 -3 61 7 61 1 0 3 -16 3
-35z m3097 3 c-19 -21 -19 -21 0 -14 16 6 17 4 5 -10 -8 -10 -15 -12 -17 -5
-2 6 -9 8 -15 4 -7 -3 -1 6 12 20 29 32 42 37 15 5z m-648 -8 c0 -11 -30 -49
-70 -87 -38 -38 -66 -63 -62 -56 3 6 0 13 -6 16 -14 5 41 54 55 49 5 -1 6 2 3
6 -7 11 28 44 37 37 4 -3 5 -2 2 2 -4 5 32 53 40 53 0 0 1 -9 1 -20z m-3379
-77 c-3 -10 -5 -2 -5 17 0 19 2 27 5 18 2 -10 2 -26 0 -35z m685 -59 c33 -34
58 -67 54 -72 -3 -6 -2 -13 4 -17 5 -3 10 0 10 7 0 7 52 -39 115 -102 115
-114 115 -115 115 -162 0 -34 -4 -48 -14 -48 -17 0 -26 22 -26 62 0 25 -16 46
-85 115 -46 47 -82 90 -78 96 3 5 2 7 -4 4 -11 -7 -106 86 -98 96 3 4 2 5 -2
2 -8 -6 -83 64 -83 78 0 4 5 5 10 2 6 -4 11 6 11 22 2 27 2 27 6 3 3 -14 32
-53 65 -86z m2988 72 c0 -2 -7 -9 -15 -16 -13 -11 -14 -10 -9 4 5 14 24 23 24
12z m180 -131 c-124 -124 -160 -152 -160 -125 0 6 41 53 91 105 63 65 99 95
115 95 13 0 32 12 46 29 13 17 27 30 33 30 5 1 -51 -60 -125 -134z m343 122
c16 -2 30 0 33 4 3 5 10 6 17 4 7 -2 39 -6 71 -9 98 -10 77 -16 -55 -16 l-124
0 -132 -132 -133 -133 0 -88 c0 -67 -3 -88 -12 -85 -9 3 -14 34 -16 97 l-3 93
118 119 c83 84 125 119 141 119 19 0 22 4 17 21 -7 20 -4 21 21 15 16 -3 42
-8 57 -9z m-3266 -12 c-6 -15 8 -31 16 -18 2 5 2 3 1 -4 -2 -7 1 -15 6 -18 6
-4 10 0 10 7 0 7 65 -52 145 -132 l145 -145 0 -67 c0 -54 -3 -68 -15 -68 -12
0 -15 13 -15 56 l0 56 -155 163 c-146 153 -171 185 -144 185 6 0 9 -7 6 -15z
m-302 -195 l135 -135 0 -58 c0 -50 -2 -58 -17 -55 -14 2 -19 16 -23 56 -5 50
-8 56 -120 174 -63 67 -114 126 -112 130 1 4 -3 7 -10 6 -8 -2 -11 8 -9 32 4
50 15 61 19 19 3 -31 21 -53 137 -169z m3932 194 c-3 -3 -12 -4 -19 -1 -8 3
-5 6 6 6 11 1 17 -2 13 -5z m56 -1 c-7 -2 -19 -2 -25 0 -7 3 -2 5 12 5 14 0
19 -2 13 -5z m-4613 -124 c0 -64 -4 -108 -9 -105 -5 4 -12 0 -14 -6 -4 -9 -6
-10 -6 -1 -1 6 4 15 9 18 6 3 10 18 9 33 0 24 -1 25 -9 7 -6 -14 -9 -4 -9 38
-1 32 3 57 9 57 6 0 10 16 10 35 0 19 2 35 5 35 3 0 5 -50 5 -111z m6680 108
c0 -1 -77 -79 -172 -172 -94 -94 -168 -162 -165 -152 4 9 2 17 -5 17 -7 0 -7
5 2 14 6 8 19 12 27 9 12 -5 14 -3 8 6 -10 17 173 201 192 194 7 -3 16 2 19
11 3 9 13 16 21 16 9 0 13 6 10 14 -4 9 -1 13 7 10 7 -3 21 4 31 16 17 18 25
24 25 17z m-3086 -13 c9 -3 13 -10 10 -15 -3 -5 -11 -6 -17 -3 -7 4 -8 3 -4
-1 4 -5 -22 -38 -57 -74 l-65 -66 -3 -124 c-2 -85 -7 -126 -15 -128 -19 -7
-23 235 -4 267 13 22 130 150 137 150 1 0 9 -3 18 -6z m-3252 -284 c43 -42 59
-63 54 -75 -3 -9 -6 -23 -6 -31 0 -8 -7 -14 -15 -14 -9 0 -15 10 -15 26 0 17
-18 44 -55 83 l-55 58 1 109 c1 72 4 99 9 79 8 -30 8 -30 11 10 2 22 5 -11 6
-73 l4 -114 61 -58z m69 159 c11 -6 18 -17 15 -24 -3 -8 0 -12 7 -9 7 2 50
-33 95 -79 79 -81 82 -86 82 -131 0 -34 -4 -46 -15 -46 -11 0 -15 11 -15 39 0
35 -7 46 -70 107 -39 37 -68 74 -66 81 3 7 -1 10 -8 7 -8 -3 -27 12 -45 33
-24 29 -31 47 -31 79 0 62 24 64 28 2 2 -36 8 -51 23 -59z m2819 101 c0 -5 -6
-10 -12 -10 -10 0 -10 -2 -1 -8 9 -6 -6 -26 -47 -67 -56 -55 -60 -63 -58 -100
1 -22 1 -77 0 -122 -2 -66 -5 -83 -17 -83 -13 0 -15 21 -15 131 l0 132 67 68
c65 67 83 80 83 59z m-3123 -62 c-3 -8 -6 -5 -6 6 -1 11 2 17 5 13 3 -3 4 -12
1 -19z m4436 4 c135 1 250 -1 253 -5 4 -4 -109 -7 -250 -7 l-258 0 -62 -60
c-56 -54 -96 -75 -96 -52 0 5 32 39 70 76 53 51 73 66 83 58 8 -7 99 -10 260
-10z m-4988 -10 c-3 -3 7 -19 22 -35 l28 -30 -37 29 c-41 31 -46 41 -23 41 8
0 13 -3 10 -5z m-194 -61 c14 -7 80 -66 145 -132 102 -102 115 -119 94 -119
-19 0 -56 30 -144 119 -78 78 -114 120 -105 124 11 4 10 6 -2 6 -9 1 -24 11
-35 24 -19 22 -19 22 1 7 11 -9 32 -22 46 -29z m479 -234 c0 -10 -3 -17 -7
-15 -5 2 -55 51 -112 110 -64 66 -100 111 -96 118 10 16 215 -188 215 -213z
m-800 165 c-8 -3 -8 -8 1 -18 6 -8 15 -12 19 -9 5 3 46 -32 91 -77 45 -46 76
-84 69 -86 -15 -5 -91 68 -83 81 3 6 2 7 -4 4 -5 -3 -41 25 -78 63 -38 39 -64
70 -57 70 8 0 10 5 6 13 -4 6 5 1 20 -13 15 -13 22 -26 16 -28z m1069 -75 c2
-106 0 -119 -14 -113 -9 3 -17 6 -18 6 -1 0 -1 51 1 113 2 87 6 114 17 114 10
0 13 -27 14 -120z m6596 73 c-47 -48 -36 -54 15 -8 19 18 -6 -9 -55 -60 -51
-52 -101 -94 -115 -97 -18 -4 1 21 80 100 58 58 107 105 109 105 3 0 -13 -18
-34 -40z m-1870 21 c-48 -12 -448 -13 -465 -1 -10 6 68 9 240 9 140 -1 242 -5
225 -8z m-4835 -111 c0 -82 -3 -100 -15 -100 -12 0 -15 16 -15 80 0 66 12 120
27 120 2 0 3 -45 3 -100z m5529 3 c-62 -68 -91 -93 -112 -93 -10 0 -15 4 -12
10 11 18 117 115 125 115 5 0 12 3 16 8 4 4 12 7 17 7 5 0 -10 -21 -34 -47z
m690 -139 c-65 -65 -120 -112 -127 -109 -7 3 -10 1 -7 -4 3 -5 1 -12 -4 -15
-5 -3 -11 0 -14 8 -4 9 43 62 121 140 102 101 128 122 136 109 6 -12 -17 -41
-105 -129z m665 70 c3 -8 2 -12 -4 -9 -6 3 -10 10 -10 16 0 14 7 11 14 -7z
m-510 -204 c-119 -119 -151 -146 -161 -136 -9 10 16 40 119 142 72 71 128 121
125 112 -8 -22 0 -23 19 -4 17 17 19 30 2 20 -7 -4 -8 -3 -4 5 4 6 11 9 16 6
5 -3 12 0 15 6 4 5 10 8 13 5 3 -4 -62 -73 -144 -156z m435 144 c-10 -13 -10
-17 2 -26 11 -8 10 -9 -4 -4 -10 3 -25 0 -33 -8 -20 -21 -17 -28 6 -16 11 6
-14 -23 -57 -64 -45 -44 -84 -74 -92 -71 -9 4 -11 0 -7 -10 3 -9 2 -13 -4 -10
-17 10 -34 -6 -19 -17 11 -8 10 -9 -3 -5 -17 6 -56 -28 -41 -35 4 -3 3 -3 -4
-2 -7 2 -15 -1 -18 -6 -4 -6 -1 -10 6 -10 7 0 -2 -16 -21 -35 -19 -20 -40 -33
-48 -30 -9 3 -12 0 -9 -9 7 -18 -77 -101 -93 -91 -8 5 -5 14 11 31 12 13 26
21 32 17 6 -3 7 -1 3 6 -7 11 65 84 85 87 5 1 14 2 19 3 6 0 10 6 10 12 0 5
-6 7 -12 3 -7 -4 16 23 52 59 35 37 67 62 70 57 3 -5 33 18 65 52 34 34 51 58
40 54 -13 -5 -4 10 25 38 43 45 65 62 39 30z m41 12 c0 -2 -7 -9 -15 -16 -13
-11 -14 -10 -9 4 5 14 24 23 24 12z m228 -425 c-2 -136 -7 -216 -13 -216 -11
0 -20 439 -9 465 16 40 24 -50 22 -249z m-2271 213 c-3 -3 -12 -4 -19 -1 -8 3
-5 6 6 6 11 1 17 -2 13 -5z m470 0 c-3 -3 -12 -4 -19 -1 -8 3 -5 6 6 6 11 1
17 -2 13 -5z m378 -4 c-7 -11 -55 -9 -55 2 0 4 14 8 31 8 17 0 28 -4 24 -10z
m48 3 c-7 -2 -19 -2 -25 0 -7 3 -2 5 12 5 14 0 19 -2 13 -5z m42 -3 c3 -6 -1
-7 -9 -4 -18 7 -21 14 -7 14 6 0 13 -4 16 -10z m81 -72 l29 -33 -32 29 c-31
28 -38 36 -30 36 2 0 16 -15 33 -32z m59 -58 c10 -11 16 -20 13 -20 -3 0 -13
9 -23 20 -10 11 -16 20 -13 20 3 0 13 -9 23 -20z m1340 -101 c-1 -101 -15
-331 -21 -338 -2 -2 -4 96 -4 218 0 174 3 222 13 218 8 -2 12 -31 12 -98z
m-1264 24 l34 -37 -37 30 c-20 16 -37 32 -37 37 -2 12 4 8 40 -30z m1416 -125
c-2 -24 -4 -5 -4 42 0 47 2 66 4 43 2 -24 2 -62 0 -85z m-1347 57 c13 -14 19
-25 14 -25 -8 1 -50 50 -41 50 2 0 14 -11 27 -25z m1521 -65 c5 0 9 -34 9 -76
0 -47 -4 -73 -10 -69 -6 4 -10 -25 -10 -80 0 -47 4 -84 8 -81 5 3 9 -16 10
-42 1 -34 -1 -41 -7 -27 -8 18 -9 17 -13 -10 -3 -16 -5 78 -5 210 0 132 2 225
4 208 2 -18 8 -33 14 -33z m-9569 -184 c13 8 109 -86 101 -100 -3 -6 -2 -8 2
-3 11 10 56 -33 48 -46 -3 -6 -1 -7 4 -4 14 9 47 -29 38 -44 -5 -7 -3 -10 6
-7 8 3 19 -5 25 -16 6 -12 16 -20 22 -19 7 2 11 -2 9 -9 -1 -7 3 -12 9 -13 22
0 104 -85 104 -108 0 -17 -32 10 -145 123 -80 80 -145 151 -145 159 0 8 -3 11
-7 7 -8 -8 -93 74 -92 89 0 5 3 4 6 -3 2 -6 9 -9 15 -6z m8992 -55 c-3 -3 -11
-6 -17 -6 -7 0 -12 -5 -12 -12 0 -7 -7 -18 -15 -25 -12 -11 -12 -11 -1 5 7 9
10 17 6 17 -4 0 -2 6 4 13 6 8 18 14 26 14 8 0 12 -3 9 -6z m-70 -72 c-3 -5
-10 -6 -16 -3 -6 4 -8 3 -5 -3 10 -17 -17 -45 -36 -37 -9 3 -14 10 -11 15 3 5
10 7 15 4 5 -4 9 1 9 9 0 16 30 37 42 29 5 -2 6 -9 2 -14z m-199 -199 c-82
-82 -153 -150 -156 -150 -34 0 180 231 218 236 10 2 29 16 43 33 14 16 29 30
35 30 5 1 -58 -66 -140 -149z m105 137 c0 -2 -10 -12 -22 -23 l-23 -19 19 23
c18 21 26 27 26 19z m-5243 -50 c17 -16 18 -44 18 -342 0 -285 -2 -326 -16
-340 -14 -14 -55 -17 -290 -21 -151 -3 -280 -7 -286 -9 -10 -4 -13 -253 -13
-1202 0 -659 4 -1203 8 -1210 5 -8 74 -12 244 -14 266 -2 325 -8 345 -35 10
-14 13 -82 13 -310 0 -176 -4 -295 -10 -299 -5 -3 -6 -13 -3 -22 4 -10 2 -14
-5 -9 -6 3 -15 0 -19 -9 -8 -14 -123 -15 -1053 -11 -575 2 -1065 6 -1089 9
-39 4 -45 8 -62 43 -16 35 -18 68 -19 293 l0 255 27 39 c15 21 39 43 52 49 15
5 146 8 311 7 l285 -2 7 49 c8 53 6 2370 -2 2377 -3 3 -140 8 -305 11 -332 8
-319 5 -356 78 -17 34 -19 62 -19 295 0 226 2 262 17 282 9 14 11 21 5 17 -7
-4 -12 -2 -12 4 0 7 9 14 20 17 25 7 26 22 3 25 -99 9 285 12 1149 8 979 -5
1038 -6 1055 -23z m3499 8 c27 -17 27 -17 21 6 -6 23 -5 23 8 5 12 -16 15 -61
15 -223 l0 -203 58 -2 c31 -1 125 0 209 1 144 3 152 2 175 -18 l23 -22 3 -647
c2 -476 0 -653 -9 -672 -6 -14 -15 -32 -19 -40 -6 -12 -44 -16 -221 -20 l-214
-5 -6 -155 c-3 -102 -10 -166 -20 -188 -14 -32 -26 -37 -104 -44 -28 -3 -22
-11 145 -183 96 -99 234 -238 306 -310 129 -127 132 -131 138 -182 4 -29 6
-231 6 -450 -1 -461 1 -448 -83 -475 -48 -16 -100 -18 -464 -18 -402 0 -411 0
-434 21 -13 11 -18 18 -11 14 6 -3 12 -2 12 4 0 5 -6 11 -12 13 -10 4 -14 92
-18 381 l-5 375 -131 134 c-72 73 -232 238 -355 365 l-224 233 -427 0 c-236 0
-429 -1 -430 -2 -1 -2 -5 -337 -8 -744 -5 -689 -6 -743 -23 -761 -9 -11 -14
-23 -11 -26 4 -4 -197 -5 -447 -4 -396 2 -454 4 -454 17 0 8 -5 22 -10 30 -12
18 -20 3282 -10 3569 7 167 9 185 28 204 14 14 17 22 9 25 -7 2 -12 7 -12 10
0 4 670 6 1490 6 1402 -1 1491 -2 1516 -19z m-3337 -35 c0 -10 -3 -8 -9 5 -12
27 -12 43 0 25 5 -8 9 -22 9 -30z m-2 -152 c-2 -18 -4 -4 -4 32 0 36 2 50 4
33 2 -18 2 -48 0 -65z m-3565 -22 c3 3 8 1 12 -4 12 -20 -26 -7 -46 17 l-23
26 26 -23 c14 -12 28 -20 31 -16z m9955 -8 c-3 -7 -5 -2 -5 12 0 14 2 19 5 13
2 -7 2 -19 0 -25z m-10184 -36 c16 -18 16 -19 -3 -17 -11 1 -23 5 -27 10 -5 4
-2 4 6 0 11 -6 13 -4 8 8 -8 22 -4 21 16 -1z m9058 -57 c-23 -25 -40 -49 -37
-54 3 -4 -8 -21 -25 -37 l-30 -29 -173 -3 c-150 -3 -174 -1 -179 12 -6 14 14
16 166 16 l173 0 69 70 c78 79 99 93 36 25z m-8755 26 c-7 -11 19 -33 28 -23
4 4 6 0 4 -8 -1 -8 2 -14 9 -15 15 0 83 -63 83 -76 0 -22 -28 -5 -82 51 -50
50 -65 80 -42 80 3 0 3 -4 0 -9z m-266 -6 c0 -7 -30 -13 -34 -7 -3 4 4 9 15 9
10 1 19 0 19 -2z m-450 -15 c0 -5 -2 -10 -4 -10 -3 0 -8 5 -11 10 -3 6 -1 10
4 10 6 0 11 -4 11 -10z m474 -22 c4 4 6 2 4 -4 -1 -7 0 -11 4 -10 12 2 108
-97 102 -106 -3 -4 1 -5 8 -3 7 3 33 -15 58 -40 44 -45 45 -45 112 -45 54 0
68 -3 68 -15 0 -12 -15 -15 -72 -15 -40 0 -78 4 -83 8 -6 4 -62 61 -125 127
-63 66 -108 114 -99 107 9 -6 19 -8 23 -4z m9006 -2 c0 -2 -8 -10 -17 -17 -16
-13 -17 -12 -4 4 13 16 21 21 21 13z m-8895 -425 c-2 -3 53 -5 121 -3 110 3
124 1 124 -13 0 -15 -14 -16 -120 -13 l-120 3 -119 119 c-66 66 -119 122 -118
125 1 3 -1 6 -5 6 -13 0 -117 108 -115 119 1 6 -5 10 -13 8 -8 -2 -12 0 -8 4
4 4 3 14 -4 23 -6 9 77 -71 185 -178 108 -107 194 -197 192 -200z m9081 318
c-34 -29 -49 -37 -43 -21 1 4 5 6 8 5 4 -1 17 9 29 22 13 14 27 25 32 25 5 0
-7 -14 -26 -31z m-9557 -33 c25 -26 29 -36 19 -41 -7 -5 -10 -4 -5 0 4 5 -7
24 -25 42 -17 18 -30 33 -27 33 3 0 20 -15 38 -34z m9490 -26 c6 8 12 12 15 9
3 -3 -33 -41 -81 -85 l-87 -79 -214 -4 c-204 -3 -214 -2 -210 15 3 18 17 19
208 21 219 2 243 3 235 12 -3 3 20 31 52 63 40 40 59 54 65 45 6 -9 10 -9 17
3z m-9416 -63 c-3 -5 -1 -7 5 -3 6 3 13 2 16 -3 14 -23 -15 -19 -39 4 -29 30
-24 56 6 29 10 -9 16 -21 12 -27z m-208 0 c1 -7 6 -11 12 -10 6 1 17 -4 23
-12 7 -8 9 -15 5 -15 -4 0 -1 -8 6 -17 7 -10 -3 -3 -22 15 -20 18 -36 39 -36
47 0 17 12 9 12 -8z m709 -335 c112 2 146 0 146 -9 0 -10 -37 -13 -152 -13
-127 0 -154 3 -170 17 -10 9 -18 22 -18 30 0 7 -4 12 -8 11 -14 -5 -113 90
-110 104 2 7 -3 12 -9 11 -7 -2 -13 4 -13 12 0 9 -10 20 -23 26 -13 6 -24 17
-24 26 0 8 53 -38 117 -102 l117 -117 147 4z m8876 149 c-7 -13 -7 -20 0 -23
6 -2 -10 -23 -35 -48 -28 -27 -43 -37 -39 -25 7 18 6 18 -9 6 -37 -29 -14 6
35 56 57 58 64 63 48 34z m-9665 -31 c3 -5 1 -10 -4 -10 -6 0 -11 5 -11 10 0
6 2 10 4 10 3 0 8 -4 11 -10z m339 -33 c4 5 6 2 4 -6 -1 -7 6 -15 16 -17 28
-4 145 -123 143 -145 -1 -11 -1 -19 -2 -19 0 0 -52 53 -115 117 -63 65 -101
105 -84 90 17 -15 34 -24 38 -20z m9215 -59 c18 0 20 -2 10 -9 -8 -5 -110 -9
-226 -9 -192 0 -213 2 -213 17 0 15 18 15 203 9 111 -5 213 -8 226 -8z m-9429
-30 l23 -33 -26 24 c-15 14 -27 28 -27 33 0 14 5 9 30 -24z m100 -119 c0 -16
-4 -29 -10 -29 -5 0 -10 11 -10 24 0 13 -10 36 -22 52 l-23 29 33 -23 c24 -17
32 -31 32 -53z m9480 47 c0 -2 -8 -10 -17 -17 -16 -13 -17 -12 -4 4 13 16 21
21 21 13z m-9154 -44 c-6 -5 -36 23 -36 34 0 4 9 -1 20 -11 11 -10 18 -20 16
-23z m9090 29 c-4 -5 0 -12 6 -14 7 -3 -105 -6 -249 -6 -228 -1 -263 1 -263
14 0 13 35 15 256 15 152 0 253 -4 250 -9z m-8706 -56 c0 -13 -28 -15 -190
-15 -167 0 -189 2 -178 15 20 22 368 22 368 0z m9185 -15 c-16 -16 -35 -30
-43 -30 -20 0 -9 23 13 26 10 1 25 10 34 18 28 29 25 16 -4 -14z m-385 -21 c0
-6 -15 -9 -35 -6 -19 3 -38 1 -41 -4 -3 -5 -122 -9 -265 -9 -225 0 -259 2
-259 15 0 13 38 15 300 15 199 -1 300 -4 300 -11z m77 5 c-3 -3 -12 -4 -19 -1
-8 3 -5 6 6 6 11 1 17 -2 13 -5z m18 -120 c50 -4 92 -8 94 -10 5 -4 -728 -9
-769 -5 -30 3 -34 6 -25 21 7 11 511 6 700 -6z m193 -11 c-15 -2 -42 -2 -60 0
-18 2 -6 4 27 4 33 0 48 -2 33 -4z m99 1 c-3 -3 -12 -4 -19 -1 -8 3 -5 6 6 6
11 1 17 -2 13 -5z m-474 -106 c43 -5 31 -18 -15 -18 -24 0 -145 -2 -270 -6
l-228 -6 0 22 0 22 243 -6 c133 -3 254 -7 270 -8z m233 -11 l129 -3 -162 -2
c-90 -1 -163 0 -163 3 0 11 45 22 56 14 6 -5 69 -10 140 -12z m-9622 -16 c-2
-3 -12 3 -22 13 -16 17 -16 18 5 5 12 -7 20 -15 17 -18z m54 -33 c-2 -7 3 -12
10 -10 6 1 11 -4 10 -10 -2 -7 3 -12 10 -10 6 1 11 -3 10 -10 -3 -11 1 -13 33
-17 6 0 9 -7 6 -15 -3 -7 8 -26 24 -42 34 -33 39 -22 7 15 -13 14 0 5 28 -22
l50 -47 217 6 c211 7 217 7 217 -12 0 -13 -7 -20 -22 -21 -45 -4 -453 10 -440
14 6 3 12 9 12 15 0 6 -6 8 -14 5 -18 -7 -180 148 -171 163 9 14 16 13 13 -2z
m9350 -67 c13 -7 -291 -21 -455 -21 -68 0 -73 2 -73 21 l0 21 258 -7 c141 -4
263 -10 270 -14z m76 0 c7 -10 -23 -20 -42 -14 -6 3 -10 9 -6 14 7 12 41 12
48 0z m-254 -111 c157 -1 294 -6 305 -10 11 -5 -106 -9 -271 -9 -160 -1 -312
-4 -338 -7 -41 -6 -46 -5 -46 13 0 15 6 19 33 17 17 -2 160 -4 317 -4z m310
-129 c0 -14 -125 -21 -397 -21 -227 0 -263 2 -263 15 0 13 43 15 330 15 182 0
330 -4 330 -9z m1050 5 c0 -2 -7 -7 -16 -10 -8 -3 -12 -2 -9 4 6 10 25 14 25
6z m-9910 -31 c0 -8 -14 -17 -32 -20 -41 -7 -497 0 -505 9 -17 16 66 22 345
23 157 1 192 -1 192 -12z m-648 -112 l28 -26 310 2 c276 2 310 1 310 -13 0
-14 -18 -16 -128 -16 -71 0 -210 3 -310 7 l-181 6 -36 34 c-19 18 -32 33 -28
33 4 0 19 -12 35 -27z m9658 19 l-25 -5 25 -7 c14 -4 -163 -8 -392 -8 -360 -1
-418 1 -418 13 0 13 57 15 418 14 229 -1 406 -4 392 -7z m-9010 -127 c0 -13
-26 -15 -194 -15 -106 0 -208 3 -225 6 -76 15 -15 23 194 24 196 1 225 -1 225
-15z m8813 -25 c13 -5 -110 -9 -295 -9 -251 -1 -318 1 -318 11 0 10 61 12 296
10 162 -2 305 -7 317 -12z m45 -153 c28 -29 39 -45 27 -41 -20 7 -20 7 0 -17
10 -13 -6 0 -37 30 l-56 53 -296 -7 c-293 -7 -296 -7 -296 13 0 20 5 20 305
18 l306 -2 47 -47z m-8858 -1 c0 -14 -37 -16 -347 -14 -342 2 -367 11 -43 16
90 2 165 4 166 5 1 1 52 3 113 5 96 3 111 1 111 -12z m0 -126 c0 -19 -6 -20
-247 -19 -216 1 -369 9 -353 19 5 3 294 13 508 18 86 2 92 1 92 -18z m8805
-50 c33 -33 60 -64 60 -68 0 -4 4 -6 8 -4 5 1 6 -2 3 -7 -4 -5 -2 -12 4 -16 5
-3 10 -1 10 6 0 8 4 8 15 -1 9 -7 14 -19 11 -25 -6 -16 59 -79 72 -71 6 3 14
1 18 -5 4 -8 3 -9 -4 -5 -7 4 -12 1 -12 -6 0 -7 -54 41 -119 106 -66 66 -118
122 -116 125 2 3 -122 5 -276 3 -245 -2 -279 -1 -279 13 0 13 35 15 273 15
l273 0 59 -60z m323 -101 c-6 -4 -3 -11 8 -18 11 -6 14 -11 8 -11 -14 0 -77
66 -80 85 -1 9 12 2 36 -18 22 -18 34 -35 28 -38z m-9129 24 c2 -11 -2 -14
-14 -9 -9 3 -139 6 -287 6 -149 0 -268 3 -264 7 11 11 203 18 391 15 147 -2
170 -5 174 -19z m8661 -39 c0 -8 4 -13 9 -10 9 6 37 -22 35 -33 -1 -3 1 -5 5
-4 5 1 25 -16 46 -38 22 -21 35 -39 30 -39 -5 0 20 -30 55 -67 36 -37 6 -12
-66 55 l-131 122 -226 0 c-197 0 -226 2 -221 15 5 13 41 15 235 15 201 0 229
-2 229 -16z m295 -24 c10 -11 16 -20 13 -20 -3 0 -13 9 -23 20 -10 11 -16 20
-13 20 3 0 13 -9 23 -20z m-8955 -48 c0 -13 -8 -17 -32 -17 -18 1 -190 3 -383
5 -383 4 -374 14 14 18 135 1 247 5 250 7 2 3 37 5 78 5 63 0 73 -2 73 -18z
m-550 -122 c0 -12 -210 -12 -230 0 -8 5 38 9 108 9 76 1 122 -2 122 -9z m550
-5 c0 -13 -23 -15 -145 -15 -106 0 -145 3 -145 12 0 9 -3 9 -12 0 -17 -17
-120 -15 -144 3 -17 13 7 14 214 15 200 0 232 -2 232 -15z m-495 -5 c3 -6 -1
-7 -9 -4 -18 7 -21 14 -7 14 6 0 13 -4 16 -10z m495 -114 c0 -18 -8 -19 -277
-13 -153 3 -289 9 -303 14 -15 5 68 10 210 14 366 8 370 8 370 -15z m8576 -77
c29 -29 52 -57 51 -63 -1 -6 4 -10 11 -8 8 1 11 -1 8 -6 -7 -11 49 -65 71 -68
9 -2 37 -24 62 -49 25 -26 37 -42 25 -37 -11 6 -26 18 -33 26 -8 9 -17 13 -22
10 -5 -3 -8 0 -7 7 2 7 -2 13 -9 14 -7 0 -59 46 -116 103 l-105 103 -156 -3
c-111 -2 -157 0 -160 9 -3 6 -3 13 -1 15 3 2 77 3 167 2 l162 -3 52 -52z
m-8576 -40 c0 -20 -2 -20 -222 -15 -467 13 -504 21 -128 26 190 3 346 6 348 8
1 1 2 -7 2 -19z m-707 4 c-7 -2 -19 -2 -25 0 -7 3 -2 5 12 5 14 0 19 -2 13 -5z
m189 -120 c-12 -2 -20 -9 -17 -14 4 -5 -22 -9 -59 -9 -61 0 -76 6 -59 23 3 4
40 6 82 6 42 -1 66 -4 53 -6z m518 -8 c0 -13 -26 -15 -177 -14 -98 1 -169 4
-159 6 15 4 16 7 5 14 -8 5 55 9 159 9 146 0 172 -2 172 -15z m8505 -55 c-4
-6 -67 -10 -156 -10 -93 0 -149 4 -149 10 0 6 59 10 156 10 101 0 153 -3 149
-10z m25 -20 c0 -5 -5 -10 -11 -10 -5 0 -7 5 -4 10 3 6 8 10 11 10 2 0 4 -4 4
-10z m-8530 -45 c0 -12 -41 -15 -276 -17 -157 -2 -278 1 -282 6 -3 5 0 6 5 3
6 -4 13 0 17 8 8 22 536 23 536 0z m8578 3 c-2 -7 2 -12 9 -13 20 0 37 -22 23
-30 -6 -4 -22 4 -36 18 -23 23 -22 28 4 36 1 1 1 -4 0 -11z m-9179 -84 c-24
-24 -45 -44 -48 -44 -3 0 7 13 22 28 15 16 25 31 22 35 -3 4 -2 5 2 2 10 -8
33 16 26 28 -4 6 -1 7 6 2 9 -5 0 -20 -30 -51z m9270 2 c36 -37 22 -43 -24
-10 -16 12 -25 26 -21 32 9 16 7 17 45 -22z m-123 -67 c10 -12 19 -24 19 -28
0 -3 4 -5 8 -3 5 1 5 -2 2 -9 -5 -7 -15 -4 -29 10 -21 19 -34 21 -184 21 -137
0 -162 2 -162 15 0 13 25 15 163 15 154 0 165 -1 183 -21z m194 -5 c0 -8 -19
-13 -24 -6 -3 5 1 9 9 9 8 0 15 -2 15 -3z m-9430 -20 c0 -8 -19 -13 -24 -6 -3
5 1 9 9 9 8 0 15 -2 15 -3z m690 -48 c0 -14 -28 -16 -227 -16 l-228 0 -74 -72
c-41 -40 -68 -64 -60 -53 8 11 43 49 78 84 59 58 67 63 100 58 20 -3 61 -2 91
2 30 4 115 8 188 9 114 3 132 1 132 -12z m8805 -16 c10 -11 16 -20 13 -20 -3
0 -13 9 -23 20 -10 11 -16 20 -13 20 3 0 13 -9 23 -20z m-9705 -144 c0 -2 -8
-10 -17 -17 -16 -13 -17 -12 -4 4 13 16 21 21 21 13z m9276 -18 c10 -13 12
-18 4 -11 -9 6 -49 10 -97 10 -58 -2 -84 2 -88 11 -3 9 16 12 79 12 73 0 85
-3 102 -22z m-8376 -14 c0 -12 -30 -14 -177 -13 -128 1 -163 4 -125 9 29 4 55
10 57 11 2 2 58 5 124 6 99 1 121 -1 121 -13z m9508 -61 c-16 -2 -40 -2 -55 0
-16 2 -3 4 27 4 30 0 43 -2 28 -4z m-984 -85 c-8 -12 -54 31 -51 46 1 6 -7 10
-18 9 -11 -1 -14 0 -7 3 6 3 9 11 6 17 -4 7 12 -6 34 -27 23 -22 39 -43 36
-48z m-153 -74 c47 -47 77 -84 68 -84 -9 0 -49 35 -91 78 -70 71 -78 77 -112
74 -25 -2 -36 1 -36 10 0 9 12 12 44 10 39 -3 51 -11 127 -88z m-8371 11 c0
-12 -13 -15 -66 -15 -47 0 -63 3 -58 12 5 8 2 9 -10 5 -9 -4 -15 -3 -12 2 3 4
37 9 76 10 57 1 70 -1 70 -14z m8591 -12 c13 -16 12 -17 -3 -4 -10 7 -18 15
-18 17 0 8 8 3 21 -13z m72 -58 c4 3 5 2 2 -2 -3 -4 18 -32 47 -62 29 -31 18
-22 -25 19 -42 41 -77 77 -77 79 0 2 10 -5 23 -17 13 -12 27 -20 30 -17z
m-9064 -61 c-29 -29 -55 -51 -58 -48 -3 3 1 9 9 14 13 9 13 10 0 10 -9 0 5 19
33 45 67 64 81 45 16 -21z m8655 41 c10 -8 15 -19 10 -26 -4 -8 -3 -10 5 -5 7
4 48 -29 104 -85 50 -51 80 -83 66 -71 -36 31 -47 27 -18 -5 16 -19 12 -17
-13 6 -21 19 -34 39 -31 44 3 6 2 7 -4 4 -13 -8 -66 47 -56 58 5 4 3 5 -3 2
-6 -3 -26 9 -44 28 -19 19 -42 35 -52 35 -10 0 -18 7 -18 15 0 19 29 19 54 0z
m-8422 -214 l-171 -166 -4 -80 -3 -80 -2 95 c-1 64 1 90 8 80 8 -12 10 -11 10
5 0 24 122 149 134 138 4 -4 6 -2 4 4 -1 7 40 56 92 108 70 70 96 91 99 78 2
-11 -53 -71 -167 -182z m7392 159 c-14 -12 -71 -23 -59 -12 6 6 19 12 30 14
13 2 19 10 17 23 -2 19 -2 19 9 2 6 -11 7 -22 3 -27z m-6237 8 c-3 -8 -6 -5
-6 6 -1 11 2 17 5 13 3 -3 4 -12 1 -19z m7537 -30 c4 4 6 0 4 -8 -2 -9 3 -14
12 -12 8 2 12 0 8 -4 -4 -4 -3 -13 3 -21 24 -28 1 -11 -32 24 -18 20 -27 32
-18 25 9 -6 19 -8 23 -4z m-9019 -58 c-3 -5 -12 -10 -18 -10 -7 0 -6 4 3 10
19 12 23 12 15 0z m9082 -7 c-4 -3 -1 -13 6 -22 11 -14 10 -14 -5 -2 -16 12
-16 31 -1 31 4 0 3 -3 0 -7z m-8910 -495 c-1 -46 -3 -9 -3 82 0 91 2 128 3 83
2 -46 2 -120 0 -165z m549 -9 c8 -14 -316 -341 -333 -335 -6 3 -19 -5 -30 -17
l-18 -22 24 20 24 20 -12 -22 c-11 -21 -46 -47 -63 -48 -5 0 -8 -4 -9 -10 -1
-15 -40 -54 -53 -52 -6 1 -9 -5 -8 -13 2 -8 0 -12 -4 -7 -4 4 -21 -5 -38 -20
-55 -49 54 66 278 294 121 123 223 223 227 223 4 0 11 -5 15 -11z m154 -163
c0 -18 -397 -402 -412 -398 -6 2 -34 -19 -62 -45 -28 -26 59 64 194 202 135
137 249 253 255 257 12 9 25 1 25 -16z m-703 -8 c-3 -8 -6 -5 -6 6 -1 11 2 17
5 13 3 -3 4 -12 1 -19z m0 -120 c-3 -8 -6 -5 -6 6 -1 11 2 17 5 13 3 -3 4 -12
1 -19z m863 -20 c0 -20 -259 -270 -271 -262 -7 4 -10 3 -6 -3 3 -5 -19 -34
-51 -64 -31 -30 -49 -45 -39 -33 34 41 16 37 -30 -6 -27 -25 29 34 123 130 94
96 188 194 209 217 34 38 65 48 65 21z m-863 -20 c-3 -8 -6 -5 -6 6 -1 11 2
17 5 13 3 -3 4 -12 1 -19z m7971 -162 c-2 -85 -6 -152 -11 -147 -14 14 -21
255 -8 279 6 12 14 22 17 22 3 0 4 -70 2 -154z m-6718 -17 c0 -20 -98 -112
-111 -104 -8 6 -10 4 -4 -4 8 -14 -30 -59 -80 -94 -26 -19 -28 -19 -15 -2 14
17 13 18 -5 12 -11 -4 27 40 85 97 98 98 130 121 130 95z m184 3 c3 -5 -26
-40 -65 -78 -39 -38 -67 -60 -63 -49 7 18 6 19 -12 6 -10 -8 12 18 51 57 70
72 79 79 89 64z m986 -16 c0 -28 -111 -140 -141 -142 -23 -2 -23 0 -2 17 11
10 14 10 9 2 -4 -7 -2 -13 3 -13 10 0 15 13 13 31 -1 3 19 26 44 50 24 24 44
49 44 55 0 10 8 17 28 23 1 1 2 -10 2 -23z m1907 -108 c-9 -178 -26 -185 -27
-11 0 128 2 142 16 136 15 -5 16 -21 11 -125z m453 -43 c-1 -158 -3 -185 -14
-174 -4 3 -9 308 -7 342 1 5 6 7 12 5 7 -2 10 -58 9 -173z m280 -37 c0 -127
-4 -208 -9 -202 -5 5 -10 97 -11 204 -3 221 -3 210 10 210 6 0 10 -77 10 -212z
m127 -7 c-7 -240 -5 -211 -17 -211 -11 0 -15 412 -4 423 22 22 26 -20 21 -212z
m463 145 l0 -74 49 -53 c27 -29 47 -58 44 -64 -5 -14 76 -87 87 -80 4 3 13 -2
20 -10 7 -8 9 -15 5 -15 -4 0 -2 -7 5 -15 7 -8 16 -13 20 -10 5 3 11 2 14 -3
3 -5 -2 -9 -11 -9 -9 0 -71 54 -139 120 l-124 119 0 78 c0 42 3 80 7 83 17 18
23 1 23 -67z m810 -17 c0 -52 -4 -88 -9 -84 -5 3 -12 -3 -14 -12 -3 -10 -5 26
-6 79 -1 90 1 99 27 107 1 1 2 -40 2 -90z m348 -19 c3 -103 -6 -131 -15 -48
-15 142 -15 160 -1 156 9 -3 14 -32 16 -108z m651 -11 c-1 -147 -17 -146 -26
0 -5 83 -3 105 8 112 8 5 15 9 17 9 1 0 2 -54 1 -121z m-4759 88 c0 -16 -32
-54 -107 -128 -118 -114 -180 -168 -129 -111 17 17 26 32 21 32 -5 0 2 11 15
25 12 13 27 22 32 19 5 -3 7 0 6 8 -2 7 3 12 10 10 8 -1 11 1 8 6 -7 12 48 64
58 55 4 -5 6 -1 4 7 -1 8 3 14 10 13 6 -2 11 3 10 10 -2 6 3 11 10 10 6 -2 11
0 10 5 -3 12 24 62 34 62 4 0 8 -10 8 -23z m270 -5 c0 -22 -25 -52 -127 -152
-70 -69 -119 -115 -109 -103 10 12 15 26 12 31 -8 14 60 76 75 67 7 -5 10 -4
6 2 -3 5 21 36 53 68 45 44 60 66 60 87 0 18 5 28 15 28 10 0 15 -10 15 -28z
m294 12 c7 -19 -16 -53 -78 -114 -34 -33 -49 -41 -57 -33 -9 9 2 26 42 68 30
31 58 65 63 76 11 23 22 24 30 3z m755 -56 c-2 -72 -17 -120 -41 -134 -10 -6
-11 -4 0 7 8 8 12 45 12 106 0 78 3 93 16 93 13 0 15 -12 13 -72z m921 -135
c0 -113 -2 -204 -4 -202 -10 9 -14 61 -21 232 -7 160 -6 177 9 177 14 0 16
-22 16 -207z m1215 10 c-2 -234 -2 -233 -15 -233 -6 0 -10 78 -10 215 0 173 3
215 13 215 11 0 13 -38 12 -197z m135 113 c0 -46 -3 -92 -6 -101 -13 -34 -24
9 -24 98 0 71 3 87 15 87 12 0 15 -16 15 -84z m360 -1 c0 -47 -4 -85 -9 -85
-15 0 -21 29 -21 101 0 55 3 69 15 69 12 0 15 -16 15 -85z m362 -42 c-3 -121
-4 -126 -18 -94 -9 21 -14 68 -14 127 0 83 2 94 18 94 15 0 17 -11 14 -127z
m286 49 c-6 -99 -20 -127 -30 -57 -3 28 -7 69 -7 93 -1 36 2 42 20 42 21 0 21
-4 17 -78z m-4174 -90 c8 -14 -119 -146 -132 -138 -8 4 -10 2 -6 -8 6 -15 -43
-58 -72 -62 -16 -3 54 76 146 163 62 59 57 56 64 45z m-1139 -17 c6 -1 -85 -5
-201 -6 -141 -3 -211 -1 -211 6 0 10 384 10 412 0z m153 -2 c-27 -2 -69 -2
-95 0 -27 2 -5 3 47 3 52 0 74 -1 48 -3z m-1688 -27 c0 -2 -8 -10 -17 -17 -16
-13 -17 -12 -4 4 13 16 21 21 21 13z m560 0 c0 -2 -8 -10 -17 -17 -16 -13 -17
-12 -4 4 13 16 21 21 21 13z m177 -21 c0 -8 -4 -12 -9 -9 -5 3 -6 10 -3 15 9
13 12 11 12 -6z m2773 12 c0 -1 -28 -29 -62 -62 l-63 -60 60 63 c55 58 65 67
65 59z m-2476 -55 c3 -5 -11 -24 -31 -43 -21 -19 -31 -26 -24 -16 7 9 10 17 5
17 -4 0 3 11 16 25 26 28 27 28 34 17z m643 -18 c-3 -3 -12 -4 -19 -1 -8 3 -5
6 6 6 11 1 17 -2 13 -5z m298 -4 c3 -5 1 -10 -4 -10 -6 0 -11 5 -11 10 0 6 2
10 4 10 3 0 8 -4 11 -10z m-898 -105 c0 -8 -4 -12 -9 -9 -5 3 -6 10 -3 15 9
13 12 11 12 -6z m4610 -82 c-3 -10 -5 -4 -5 12 0 17 2 24 5 18 2 -7 2 -21 0
-30z m-3186 -320 c13 -17 13 -17 -6 -3 -11 8 -22 16 -24 17 -2 2 0 3 6 3 6 0
17 -8 24 -17z"/>
<path d="M7715 7240 c-3 -5 -1 -10 4 -10 6 0 11 5 11 10 0 6 -2 10 -4 10 -3 0
-8 -4 -11 -10z"/>
<path d="M7679 7203 c-13 -16 -12 -17 4 -4 9 7 17 15 17 17 0 8 -8 3 -21 -13z"/>
<path d="M7850 7205 c-20 -24 -6 -28 15 -5 10 11 13 20 8 20 -6 0 -16 -7 -23
-15z"/>
<path d="M5210 7211 c0 -6 4 -13 10 -16 6 -3 7 1 4 9 -7 18 -14 21 -14 7z"/>
<path d="M5570 7155 c13 -14 26 -25 28 -25 3 0 -5 11 -18 25 -13 14 -26 25
-28 25 -3 0 5 -11 18 -25z"/>
<path d="M4234 6995 c8 -8 18 -15 22 -15 3 0 1 7 -6 15 -7 8 -17 15 -22 15 -5
0 -3 -7 6 -15z"/>
<path d="M4270 6966 c0 -2 8 -10 18 -17 15 -13 16 -12 3 4 -13 16 -21 21 -21
13z"/>
<path d="M4310 6927 c0 -2 15 -16 33 -33 l32 -29 -29 33 c-28 30 -36 37 -36
29z"/>
<path d="M3650 6937 c0 -2 15 -16 33 -33 l32 -29 -29 33 c-28 30 -36 37 -36
29z"/>
<path d="M11195 6868 c-37 -38 -44 -48 -20 -27 38 32 91 89 83 89 -2 0 -30
-28 -63 -62z"/>
<path d="M11075 6429 c-4 -6 -5 -12 -2 -15 2 -3 7 2 10 11 7 17 1 20 -8 4z"/>
<path d="M2580 6006 c0 -2 8 -10 18 -17 15 -13 16 -12 3 4 -13 16 -21 21 -21
13z"/>
<path d="M11329 5763 c-13 -16 -12 -17 4 -4 9 7 17 15 17 17 0 8 -8 3 -21 -13z"/>
<path d="M4012 5725 c-4 -5 -8 -131 -9 -278 -2 -233 0 -269 13 -274 8 -3 25 0
37 6 26 14 512 8 561 -6 16 -5 38 -20 48 -34 19 -25 19 -67 18 -1275 0 -1195
-1 -1250 -19 -1274 -29 -40 -79 -50 -285 -56 -105 -2 -233 -7 -283 -10 l-93
-6 0 -238 c0 -146 4 -241 10 -245 5 -3 467 -6 1026 -7 851 0 1018 2 1025 13
15 23 4 34 -36 37 -51 4 -59 12 -12 12 l37 0 0 189 c0 104 3 202 6 218 l6 30
-209 7 c-258 8 -313 14 -313 32 0 7 -10 16 -23 19 -13 4 -31 19 -40 35 -16 26
-17 124 -17 1252 0 1171 1 1224 19 1253 26 44 88 57 268 55 81 0 190 2 241 6
l92 7 -1 31 c-1 17 -3 23 -6 14 -13 -51 -18 4 -18 211 0 179 3 227 13 224 8
-4 12 5 12 25 l0 29 -132 8 c-200 11 -1929 2 -1936 -10z m2027 -40 c-3 -2
-446 -6 -985 -7 l-979 -3 0 -223 c0 -187 2 -224 15 -232 12 -8 9 -9 -10 -8
-14 2 -28 8 -32 13 -9 12 -11 427 -2 449 6 14 103 16 1002 16 547 0 993 -2
991 -5z m-1291 -951 c-1 -154 -5 -291 -9 -305 -4 -13 -9 91 -10 231 -5 365 -5
409 0 465 11 106 21 -106 19 -391z m-11 -416 c-3 -8 -6 -5 -6 6 -1 11 2 17 5
13 3 -3 4 -12 1 -19z m0 -1085 c-1 -60 -3 -11 -3 107 0 118 2 167 3 108 2 -60
2 -156 0 -215z m0 -235 c-2 -24 -4 -7 -4 37 0 44 2 63 4 43 2 -21 2 -57 0 -80z
m0 -310 c-1 -51 -3 -12 -3 87 0 99 2 141 3 93 2 -48 2 -129 0 -180z m-480
-174 c-3 -3 -12 -4 -19 -1 -8 3 -5 6 6 6 11 1 17 -2 13 -5z m-192 -193 c0 -99
-3 -177 -7 -175 -4 2 -9 -8 -11 -23 -2 -16 -5 53 -5 152 0 175 4 242 16 230 3
-3 6 -86 7 -184z m675 -241 c102 -5 12 -6 -235 -3 -220 3 -402 7 -404 9 -7 6
458 2 639 -6z m600 0 c14 -5 -62 -8 -175 -7 l-200 1 145 6 c80 3 159 6 175 7
17 1 41 -3 55 -7z m625 0 c-4 -6 -77 -9 -193 -8 -132 1 -167 3 -117 8 119 11
317 11 310 0z"/>
<path d="M4053 5555 c0 -44 2 -61 4 -37 2 23 2 59 0 80 -2 20 -4 1 -4 -43z"/>
<path d="M6888 5733 c-166 -4 -177 -7 -160 -54 7 -19 9 -19 21 -5 8 9 19 16
25 16 6 0 3 -5 -6 -11 -17 -9 -18 -105 -18 -1777 0 -1009 -4 -1761 -9 -1753
-6 9 -11 -7 -16 -48 -4 -34 -5 -64 -3 -66 3 -3 707 -8 763 -5 7 0 9 244 7 717
-1 395 0 728 3 741 3 13 24 43 47 68 l41 44 136 2 136 2 -155 6 c-106 4 -27 6
253 8 324 2 407 -1 401 -10 -6 -10 -4 -10 8 0 17 13 52 6 42 -9 -3 -5 10 -9
28 -9 66 0 50 14 554 -509 179 -186 245 -262 263 -301 13 -29 17 -93 21 -387
l5 -352 405 -3 405 -3 0 429 c0 418 0 429 -20 440 -11 6 -33 19 -50 29 l-30
19 33 -29 32 -29 -1 -385 c-1 -211 -4 -397 -8 -414 -4 -16 -7 155 -7 380 l1
410 -82 80 c-46 43 -83 83 -83 89 0 5 15 -3 33 -20 17 -16 -15 21 -73 82 -58
61 -109 112 -115 113 -5 0 29 -38 75 -86 47 -49 -11 6 -128 122 -116 115 -212
214 -212 220 0 5 30 -20 67 -55 37 -36 56 -52 43 -36 -39 47 -142 141 -151
139 -4 -2 -19 11 -33 28 -30 36 -33 78 -8 108 15 19 29 22 126 26 60 2 112 7
117 12 4 4 9 70 11 145 l3 137 34 35 c19 19 46 37 60 39 20 3 17 5 -14 8 -22
2 39 6 135 9 l175 5 3 505 c2 278 0 538 -3 578 l-7 72 -208 0 c-172 0 -210 3
-220 15 -8 9 -9 15 -2 15 6 0 14 -4 17 -10 3 -5 31 -10 62 -10 45 0 54 3 49
15 -5 13 19 15 172 17 l177 2 -185 5 c-247 8 -260 16 -247 158 8 81 -3 230
-14 193 -7 -24 -7 -24 -9 5 -5 68 -19 -63 -20 -195 -1 -81 -5 -127 -10 -115
-6 17 -8 14 -12 -15 -3 -19 -6 52 -6 158 l-2 192 -57 0 c-32 0 -566 2 -1188 3
-621 1 -1218 4 -1325 7 l-195 6 150 1 c499 6 1746 14 1775 12 19 -2 62 -1 95
1 77 5 309 3 540 -5 103 -3 193 -2 210 4 17 5 22 10 12 10 -10 1 -15 6 -12 11
4 6 -7 10 -27 10 -470 3 -2527 6 -2640 3z m2192 -521 c-7 -3 -4 -12 9 -26 19
-20 35 -70 46 -148 l6 -37 87 -3 87 -3 7 -40 c9 -52 10 -304 1 -468 -7 -149
-7 -150 -113 -153 -36 -2 -70 -3 -75 -3 -14 -1 -35 -73 -35 -119 0 -79 -57
-112 -193 -112 -42 0 -79 -4 -82 -10 -4 -7 -229 -9 -648 -8 -353 1 -586 5
-517 8 l125 5 -114 5 c-83 4 -116 9 -119 19 -2 7 -17 28 -33 46 l-30 33 3 461
3 461 51 48 50 47 748 0 c411 0 742 -1 736 -3z m480 -1324 l-5 -153 -3 140
c-2 122 0 165 10 165 2 0 1 -69 -2 -152z m17 -125 c-2 -32 -3 -8 -3 52 0 61 1
87 3 58 2 -29 2 -78 0 -110z m-142 -253 c10 -11 14 -20 9 -20 -5 0 -15 9 -22
20 -7 11 -11 20 -9 20 2 0 12 -9 22 -20z m592 -1093 c-1 -73 -3 -10 -3 138 0
149 2 208 3 132 2 -76 2 -198 0 -270z m-730 146 c-2 -16 -4 -5 -4 22 0 28 2
40 4 28 2 -13 2 -35 0 -50z m344 -473 c203 0 338 -4 335 -9 -4 -5 -86 -8 -189
-7 -100 1 -247 0 -327 -3 -80 -4 -151 -5 -157 -3 -9 3 -12 27 -11 81 l2 76 3
-67 4 -68 340 0z m-2221 -10 c0 -12 -606 -12 -635 0 -12 5 115 9 308 9 212 1
327 -3 327 -9z"/>
<path d="M7586 5058 c-3 -13 -6 -208 -6 -434 l0 -412 48 -4 c26 -2 342 -4 702
-4 l655 1 6 104 c8 127 12 131 115 131 40 0 79 3 88 6 14 5 16 33 16 210 l0
204 -62 0 c-76 1 -138 14 -149 32 -5 7 -9 52 -9 101 l0 87 -699 0 -699 0 -6
-22z"/>
<path d="M9318 5683 c6 -2 18 -2 25 0 6 3 1 5 -13 5 -14 0 -19 -2 -12 -5z"/>
<path d="M10013 5260 c16 -10 17 -51 19 -593 l3 -582 5 585 5 585 3 -582 c1
-380 -1 -584 -8 -588 -20 -12 -9 -26 18 -23 l27 3 3 598 2 597 -22 0 c-13 0
-34 3 -48 6 -21 5 -22 4 -7 -6z"/>
<path d="M9848 5253 c12 -2 30 -2 40 0 9 3 -1 5 -23 4 -22 0 -30 -2 -17 -4z"/>
<path d="M8028 3603 c50 -2 134 -2 185 0 50 1 9 3 -93 3 -102 0 -143 -2 -92
-3z"/>
<path d="M2870 5456 c0 -2 8 -10 18 -17 15 -13 16 -12 3 4 -13 16 -21 21 -21
13z"/>
<path d="M2635 5400 c21 -22 41 -40 44 -40 3 0 -13 18 -34 40 -21 22 -41 40
-44 40 -3 0 13 -18 34 -40z"/>
<path d="M2710 5326 c0 -2 8 -10 18 -17 15 -13 16 -12 3 4 -13 16 -21 21 -21
13z"/>
<path d="M2395 5330 c27 -27 51 -50 54 -50 3 0 -17 23 -44 50 -27 28 -51 50
-54 50 -3 0 17 -22 44 -50z"/>
<path d="M2470 5257 c0 -1 35 -36 78 -77 l77 -75 -75 78 c-69 71 -80 82 -80
74z"/>
<path d="M11632 5243 c-58 -63 -48 -65 13 -3 27 28 45 50 40 49 -6 0 -29 -21
-53 -46z"/>
<path d="M2425 4890 c38 -38 72 -70 74 -70 3 0 -26 32 -64 70 -38 39 -72 70
-74 70 -3 0 26 -31 64 -70z"/>
<path d="M11598 4803 c7 -3 16 -2 19 1 4 3 -2 6 -13 5 -11 0 -14 -3 -6 -6z"/>
<path d="M2455 4280 c3 -5 8 -10 11 -10 2 0 4 5 4 10 0 6 -5 10 -11 10 -5 0
-7 -4 -4 -10z"/>
<path d="M11796 3677 c3 -10 9 -15 12 -12 3 3 0 11 -7 18 -10 9 -11 8 -5 -6z"/>
<path d="M11745 3500 c21 -22 41 -40 44 -40 3 0 -13 18 -34 40 -21 22 -41 40
-44 40 -3 0 13 -18 34 -40z"/>
<path d="M11835 3410 c3 -5 8 -10 11 -10 2 0 4 5 4 10 0 6 -5 10 -11 10 -5 0
-7 -4 -4 -10z"/>
<path d="M12030 3445 c13 -14 26 -25 28 -25 3 0 -5 11 -18 25 -13 14 -26 25
-28 25 -3 0 5 -11 18 -25z"/>
<path d="M11660 3337 c0 -2 15 -16 33 -33 l32 -29 -29 33 c-28 30 -36 37 -36
29z"/>
<path d="M11520 2985 c19 -19 36 -35 39 -35 3 0 -10 16 -29 35 -19 19 -36 35
-39 35 -3 0 10 -16 29 -35z"/>
<path d="M11590 2645 c13 -14 26 -25 28 -25 3 0 -5 11 -18 25 -13 14 -26 25
-28 25 -3 0 5 -11 18 -25z"/>
<path d="M11435 2190 c10 -11 20 -20 23 -20 3 0 -3 9 -13 20 -10 11 -20 20
-23 20 -3 0 3 -9 13 -20z"/>
<path d="M11250 2135 c13 -14 26 -25 28 -25 3 0 -5 11 -18 25 -13 14 -26 25
-28 25 -3 0 5 -11 18 -25z"/>
<path d="M2549 2003 l-24 -28 28 24 c25 23 32 31 24 31 -2 0 -14 -12 -28 -27z"/>
<path d="M11210 1976 c0 -2 8 -10 18 -17 15 -13 16 -12 3 4 -13 16 -21 21 -21
13z"/>
<path d="M2714 928 l-19 -23 23 19 c12 11 22 21 22 23 0 8 -8 2 -26 -19z"/>
<path d="M2940 849 c-38 -45 -38 -47 3 -10 20 19 37 36 37 38 0 10 -18 -3 -40
-28z"/>
<path d="M3156 759 c-15 -12 -25 -23 -22 -26 2 -3 17 7 33 21 33 31 26 34 -11
5z"/>
<path d="M3694 698 l-29 -33 33 29 c30 28 37 36 29 36 -2 0 -16 -15 -33 -32z"/>
<path d="M4939 753 c-13 -16 -12 -17 4 -4 16 13 21 21 13 21 -2 0 -10 -8 -17
-17z"/>
<path d="M4079 563 c-13 -16 -12 -17 4 -4 16 13 21 21 13 21 -2 0 -10 -8 -17
-17z"/>
</g>
</svg>
